HIERARCHY
ROOT Hips
{
	OFFSET 0.000000 88.474243 0.000000
	CHANNELS 6 Xposition Yposition Zposition Zrotation Yrotation Xrotation 
	JOINT Hips_Spine
	{
		OFFSET 0.000000 0.000000 0.000000
		CHANNELS 3 Zrotation Yrotation Xrotation
		JOINT Spine
		{
			OFFSET 0.005100 8.711998 -0.691000
			CHANNELS 3 Zrotation Yrotation Xrotation
			JOINT Spine1
			{
				OFFSET -0.009200 8.660301 -1.275000
				CHANNELS 3 Zrotation Yrotation Xrotation
				JOINT Spine2
				{
					OFFSET 0.006300 9.852501 -1.857000
					CHANNELS 3 Zrotation Yrotation Xrotation
					JOINT Spine2_Neck
					{
						OFFSET 0.000000 0.000000 0.000000
						CHANNELS 3 Zrotation Yrotation Xrotation
						JOINT Neck
						{
							OFFSET 0.016300 11.420799 -0.263300
							CHANNELS 3 Zrotation Yrotation Xrotation
							End Site #name: Head
							{
								OFFSET -0.019200 9.262405 2.362500
							}
						}
					}
					JOINT Spine2_LeftShoulder
					{
						OFFSET 0.000000 0.000000 0.000000
						CHANNELS 3 Zrotation Yrotation Xrotation
						JOINT LeftShoulder
						{
							OFFSET 5.616900 6.732201 -0.345700
							CHANNELS 3 Zrotation Yrotation Xrotation
							JOINT LeftArm
							{
								OFFSET 10.664888 -0.183372 -2.440700
								CHANNELS 3 Zrotation Yrotation Xrotation
								JOINT LeftForeArm
								{
									OFFSET 27.459126 0.000000 0.000000
									CHANNELS 3 Zrotation Yrotation Xrotation
									End Site #name: LeftHand
									{
										OFFSET 21.306858 0.000000 0.000000
									}
								}
							}
						}
					}
					JOINT Spine2_RightShoulder
					{
						OFFSET 0.000000 0.000000 0.000000
						CHANNELS 3 Zrotation Yrotation Xrotation
						JOINT RightShoulder
						{
							OFFSET -5.580300 6.737503 -0.344400
							CHANNELS 3 Zrotation Yrotation Xrotation
							JOINT RightArm
							{
								OFFSET -10.679335 -0.188484 -2.383900
								CHANNELS 3 Zrotation Yrotation Xrotation
								JOINT RightForeArm
								{
									OFFSET -27.503529 0.000000 0.000000
									CHANNELS 3 Zrotation Yrotation Xrotation
									End Site #name: RightHand
									{
										OFFSET -21.306808 0.000000 0.000000
									}
								}
							}
						}
					}
				}
			}
		}
	}
	JOINT Hips_LeftUpLeg
	{
		OFFSET 0.000000 0.000000 0.000000
		CHANNELS 3 Zrotation Yrotation Xrotation
		JOINT LeftUpLeg
		{
			OFFSET 6.857700 -6.739601 0.312100
			CHANNELS 3 Zrotation Yrotation Xrotation
			JOINT LeftLeg
			{
				OFFSET -0.367590 -34.731552 -4.572400
				CHANNELS 3 Zrotation Yrotation Xrotation
				End Site #name: LeftFoot
				{
					OFFSET 0.367590 -34.656704 -6.067400
				}
			}
		}
	}
	JOINT Hips_RightUpLeg
	{
		OFFSET 0.000000 0.000000 0.000000
		CHANNELS 3 Zrotation Yrotation Xrotation
		JOINT RightUpLeg
		{
			OFFSET -6.876100 -6.733299 0.301000
			CHANNELS 3 Zrotation Yrotation Xrotation
			JOINT RightLeg
			{
				OFFSET 0.347353 -34.795158 -4.515900
				CHANNELS 3 Zrotation Yrotation Xrotation
				End Site #name: RightFoot
				{
					OFFSET -0.347353 -34.589367 -6.070300
				}
			}
		}
	}
}
MOTION
Frames: 7
Frame Time: 0.041667
0.177337 0.060312 0.006869 -0.836875 16.982996 -7.195690 0.000000 0.000000 0.000000 -1.328129 -0.408604 1.358279 -0.507077 -0.380671 0.250206 0.000000 0.000000 0.000000 -0.023283 -0.447890 -0.578819 1.421938 -0.885316 -1.923338 0.140062 -0.902285 -1.188543 -17.933369 -6.746078 0.974152 -46.760159 -0.182751 20.961832 0.784241 -17.817776 4.295395 -0.655429 -0.084357 0.013410 16.547074 11.155728 4.627332 57.857402 -3.741397 1.924737 0.087561 41.838366 0.784906 0.000000 0.000000 0.000000 -7.543376 13.086978 -3.537425 1.798546 5.386113 19.286969 0.000000 0.000000 0.000000 -1.141480 0.404487 -3.979175 2.286317 1.209855 -6.302980 
0.553217 0.042687 0.110211 0.214991 20.035334 -8.086829 0.000000 0.000000 0.000000 -3.163818 -0.147656 -0.653337 -0.099630 -0.078445 -0.259910 0.000000 0.000000 0.000000 -0.571478 -0.122775 -1.042230 2.211597 -2.052520 -1.493437 -0.353051 -0.350574 -1.691692 -23.393286 -3.689164 -0.642573 -43.341061 0.470695 19.503722 -0.438184 -14.229225 0.771230 -1.005899 0.133613 -0.335804 17.902786 8.827639 2.385079 59.907343 0.499950 3.113499 0.082418 34.293010 -0.232211 0.000000 0.000000 -0.000000 -9.273463 13.128941 -2.567404 0.199605 6.529042 19.435039 0.000000 0.000000 0.000000 -4.570079 -0.099886 -3.427853 1.769773 -0.406934 -4.087362 
0.825352 0.043397 0.078081 1.126869 20.963512 -8.052298 -0.000000 0.000000 0.000000 -3.467892 0.083952 -0.967230 -0.031153 0.304530 -0.691266 0.000000 0.000000 0.000000 -0.003721 -0.147870 -1.423554 2.336154 -1.917533 -2.875031 -0.458029 -0.084445 -2.036894 -27.978784 -2.162065 -0.700306 -43.381068 9.545983 14.989771 -0.712675 -13.479073 0.755929 -0.667887 0.374799 -0.547184 17.356860 8.355592 2.227016 59.946509 2.183196 4.329647 0.244200 28.415945 -0.396284 0.000000 0.000000 -0.000000 -10.907059 11.912530 -2.050092 -0.033493 7.728670 19.063880 0.000000 0.000000 0.000000 -6.358440 -0.323711 -4.631777 1.465068 -3.089187 -1.404135 
1.127768 0.033139 -0.003014 1.469002 20.455312 -7.664378 -0.000000 0.000000 0.000000 -3.821968 0.240786 -0.589253 0.218741 0.353080 -0.965960 0.000000 0.000000 0.000000 0.459738 -0.119890 -1.429245 2.189827 -2.176276 -2.849199 -0.210539 -0.030782 -2.110774 -30.526267 -1.256108 -1.313084 -42.518186 11.416966 14.801013 -0.685648 -13.220776 0.935181 -0.038066 0.304492 -0.506924 16.301331 8.626255 2.148191 60.312497 4.796529 4.566691 0.351042 30.105615 -0.373085 0.000000 0.000000 -0.000000 -11.926851 11.495539 -2.200922 -0.279324 7.993054 18.545730 0.000000 0.000000 0.000000 -7.192325 -0.809311 -6.284453 1.145759 -3.664616 1.138176 
1.484577 0.030527 -0.097800 1.495509 20.194811 -7.333021 -0.000000 0.000000 0.000000 -4.402646 0.489384 -0.633916 0.278143 0.407714 -1.150879 0.000000 0.000000 0.000000 0.609859 -0.107628 -1.453813 2.077592 -2.589058 -2.258457 -0.099933 -0.066951 -2.155418 -32.896798 -0.612582 -1.705655 -40.748064 10.767445 16.699405 -0.571948 -10.750725 1.843994 0.129274 0.224377 -0.351787 15.309756 8.752196 2.029474 60.961100 6.596373 3.704824 0.430424 32.097446 -0.334881 0.000000 0.000000 -0.000000 -12.645108 11.169128 -2.677566 -0.407878 7.895717 18.687236 0.000000 0.000000 0.000000 -7.741904 -1.207052 -7.536119 1.232863 -2.612563 3.027189 
1.877289 0.034621 -0.194273 1.403249 20.063683 -7.158894 -0.000000 0.000000 0.000000 -5.028187 0.579048 -0.651953 0.171410 0.357268 -1.146279 0.000000 0.000000 0.000000 0.484751 -0.197927 -1.415416 2.047004 -2.846786 -1.758424 -0.152979 -0.162354 -2.168848 -34.524626 -0.059426 -1.809735 -39.084972 9.023334 18.061546 -0.507287 -7.102032 2.653436 0.099419 0.057269 -0.319405 14.522001 8.903218 1.966211 61.732496 7.087783 3.031985 0.528947 32.239631 -0.322000 0.000000 0.000000 -0.000000 -13.152172 10.971367 -3.068684 -0.549312 7.452772 19.126576 0.000000 0.000000 0.000000 -8.171090 -1.408261 -8.043927 1.799715 -0.312441 3.859478 
2.279137 0.046781 -0.293459 1.237297 20.071242 -7.084061 -0.000000 0.000000 0.000000 -5.532216 0.649740 -0.730191 -0.011581 0.297882 -1.138879 0.000000 0.000000 0.000000 0.256252 -0.305373 -1.323840 2.022359 -3.015670 -1.456097 -0.292212 -0.238483 -2.118813 -35.666405 0.298044 -1.746666 -37.638976 7.462576 19.317256 -0.411939 -3.273795 3.042736 -0.103341 -0.051729 -0.328185 13.565635 8.891545 1.881758 62.632073 6.356387 2.458260 0.634307 31.562620 -0.335175 0.000000 0.000000 -0.000000 -13.526875 10.855726 -3.374614 -0.795334 6.724924 19.607197 0.000000 0.000000 0.000000 -8.512987 -1.495423 -8.193990 2.253149 1.731149 4.323603 
